<svg width="64" height="64" version="1.1" viewBox="0 0 16.9 16.9" xmlns="http://www.w3.org/2000/svg">
 <rect x="-1.39e-17" y="9.63e-8" width="16.9" height="16.9" ry="3.16" fill="#5380f7" stroke-linecap="round" stroke-linejoin="round" stroke-width=".0128"/>
 <g transform="translate(0 -1.06)">
  <path d="m5.02 3.33c-1.58 0-2.85 1.28-2.85 2.85 0 1.58 1.28 2.85 2.85 2.85 1.58 0 2.85-1.28 2.85-2.85 0-1.58-1.28-2.85-2.85-2.85z" fill="#fff" stroke="#5380f7" stroke-width=".285"/>
  <path d="m6.7 7.72c-.0742-.231-.285-.397-.542-.397h-.285v-.856c0-.157-.128-.285-.285-.285h-1.71v-.571h.571c.157 0 .285-.128.285-.285v-.571h.571c.314 0 .571-.257.571-.571v-.117c.836.34 1.43 1.16 1.43 2.11 0 .594-.228 1.13-.599 1.54z" fill="#5380f7"/>
  <path d="m4.73 8.44c-1.13-.14-2-1.1-2-2.26 0-.177.0228-.345.0599-.511l1.37 1.37v.285c0 .314.257.571.571.571z" fill="#5380f7"/>
 </g>
 <path d="m4.92 9.24-.825.8h-3.96v4.43c.358 1.35 1.58 2.35 3.05 2.35h10.3v-6.78h-7.75z" fill="#fff" stroke="#4d4d4d" stroke-width=".265px"/>
 <rect x="1.96" y="11.9" width="9.71" height=".919" ry=".459" fill="#4d4d4d"/>
 <rect x="3.8" y="14.1" width="7.87" height=".919" ry=".459" fill="#5380f7"/>
 <g transform="translate(21.1 -.404)" fill="none" stroke="#fff" stroke-linecap="round" stroke-linejoin="round" stroke-width="2">
  <path transform="scale(.265)" d="m-41.5 10.5a17.1 17.1 0 013.54 10.4 17.1 17.1 0 01-3.9 10.9"/>
  <path transform="scale(.265)" d="m-46.1 14a11.3 11.3 0 012.35 6.9 11.3 11.3 0 01-2.56 7.16"/>
  <path transform="scale(.265)" d="m-36.7 6.95a23.1 23.1 0 014.73 14 23.1 23.1 0 01-5.25 14.6"/>
 </g>
</svg>
